/* XPM */
static char * gripper_2_32_xpm[] = {
"32 32 75 1",
" 	g None",
".	g #626262",
"+	g #A5A5A5",
"@	g #8B8B8B",
"#	g #6F6F6F",
"$	g #525252",
"%	g #8C8C8C",
"&	g #363636",
"*	g #1B1B1B",
"=	g #707070",
"-	g #939393",
";	g #535353",
">	g #777777",
",	g #6E6E6E",
"'	g #5A5A5A",
")	g #949494",
"!	g #3E3E3E",
"~	g #8D8D8D",
"{	g #373737",
"]	g #6D6D6D",
"^	g #212121",
"/	g #A6A6A6",
"(	g #4A4A4A",
"_	g #6C6C6C",
":	g #494949",
"<	g #9A9A9A",
"[	g #787878",
"}	g #5B5B5B",
"|	g #7F7F7F",
"1	g #717171",
"2	g #545454",
"3	g #6B6B6B",
"4	g #484848",
"5	g #6A6A6A",
"6	g #474747",
"7	g #464646",
"8	g #959595",
"9	g #3F3F3F",
"0	g #222222",
"a	g #292929",
"b	g #383838",
"c	g #696969",
"d	g #8E8E8E",
"e	g #636363",
"f	g #909090",
"g	g #686868",
"h	g #454545",
"i	g #808080",
"j	g #8A8A8A",
"k	g #1C1C1C",
"l	g #676767",
"m	g #797979",
"n	g #5C5C5C",
"o	g #8F8F8F",
"p	g #727272",
"q	g #444444",
"r	g #2A2A2A",
"s	g #515151",
"t	g #555555",
"u	g #666666",
"v	g #202020",
"w	g #353535",
"x	g #A7A7A7",
"y	g #656565",
"z	g #434343",
"A	g #181818",
"B	g #393939",
"C	g #646464",
"D	g #969696",
"E	g #404040",
"F	g #232323",
"G	g #424242",
"H	g #191919",
"I	g #414141",
"J	g #1F1F1F",
"                               .",
"                               .",
"                               .",
"                              +.",
"                             +@.",
"                            +@#.",
"                           +@#$.",
"                          +%#$&.",
"                         +%#$&*.",
"                        +%#$&*=.",
"                       +%=$&*=-.",
"                      +%=;&*#->.",
"                     +%=;&*,->'.",
"                    +%=;&*,)>'!.",
"                   +~=;{*])>'!^.",
"                  /~=;{*])>'!^(.",
"                 /~=;{*_)>'!^:<.",
"                /~=;{*_)[}!^:<|.",
"               /~12{*3)[}!^4<|..",
"              /~12{*5)[}!^6<|.7.",
"             /~12{*58[}906<|.7a.",
"            /~12b*c8[}907<|.7a0.",
"           /d12b*c8[}907<|e7a^f.",
"          /d12b*g8[}90h<ie7a^fj.",
"         /d12bkl8mn90h<ie7a^oj,.",
"        /dp2bkl8mn90q<ie7r^oj,s.",
"       /dptbku8mn90q<ie7rvo@,sw.",
"      xdptbky8mn90z<ie6rvd@,swA.",
"     xdptBkCDmnEFG<ie6rvd@,swHu.",
"    xoptBkCDmnEFG<iC6rvd@,swHyD.",
"   xoptBkeDmnEFI<iC6rJ~@#$wHyDm.",
"................................"};
