/* XPM */
static char * gripper_2_64_xpm[] = {
"64 64 22 1",
" 	g None",
".	g #626262",
"+	g #ACACAC",
"@	g #9F9F9F",
"#	g #919191",
"$	g #828282",
"%	g #757575",
"&	g #666666",
"*	g #575757",
"=	g #494949",
"-	g #3B3B3B",
";	g #3F3F3F",
">	g #989898",
",	g #979797",
"'	g #2D2D2D",
")	g #1E1E1E",
"!	g #101010",
"~	g #222222",
"{	g #AAAAAA",
"]	g #3E3E3E",
"^	g #999999",
"/	g #212121",
"                                                              ..",
"                                                              ..",
"                                                              ..",
"                                                              ..",
"                                                              ..",
"                                                             +..",
"                                                            +@..",
"                                                           +@#..",
"                                                          +@#$..",
"                                                         +@#$%..",
"                                                        +@#$%&..",
"                                                       +@#$%&*..",
"                                                      +@#$%&*=..",
"                                                     +@#$%&*=-..",
"                                                    +@#$%&*=-;..",
"                                                   +@#$%&*=-;>..",
"                                                  +@#$%&*=-;>@..",
"                                                 +@#$%&*=-;>@#..",
"                                                +@#$%&*=-;>@#$..",
"                                               +@#$%&*=-;,@#$%..",
"                                              +@#$%&*=-;,@#$%&..",
"                                             +@#$%&*=-;,@#$%&*..",
"                                            +@#$%&*=-;,@#$%&*=..",
"                                           +@#$%&*=-;,@#$%&*=-..",
"                                          +@#$%&*=-;>@#$%&*=-'..",
"                                         +@#$%&*=-;>@#$%&*=-')..",
"                                        +@#$%&*=-;>@#$%&*=-')!..",
"                                       +@#$%&*=-;>@#$%&*=-')!~..",
"                                      +@#$%&*=-;>@#$%&*=-')!~{..",
"                                     +@#$%&*=-;>@#$%&*=-')!~{@..",
"                                    +@#$%&*=-]>@#$%&*=-')!~{@#..",
"                                   +@#$%&*=-]^@#$%&*=-')!~{@#$..",
"                                  +@#$%&*=-]^@#$%&*=-')!~{@#$%..",
"                                 +@#$%&*=-]^@#$%&*=-')!~{@#$%&..",
"                                +@#$%&*=-]^@#$%&*=-')!~{@#$%&*..",
"                               +@#$%&*=-]^@#$%&*=-')!~{@#$%&*=..",
"                              +@#$%&*=-]^@#$%&*=-')!~{@#$%&*=-..",
"                             +@#$%&*=-]^@#$%&*=-')!~{@#$%&*=-'..",
"                            +@#$%&*=-]^@#$%&*=-')!~{@#$%&*=-')..",
"                           +@#$%&*=-]^@#$%&*=-')!/{@#$%&*=-')!..",
"                          +@#$%&*=-]^@#$%&*=-')!/{@#$%&*=-')!~..",
"                         +@#$%&*=-]^@#$%&*=-')!/{@#$%&*=-')!~{..",
"                        +@#$%&*=-]^@#$%&*=-')!/{@#$%&*=-')!~{@..",
"                       +@#$%&*=-]^@#$%&*=-')!/{@#$%&*=-')!/{@#..",
"                      +@#$%&*=-]^@#$%&*=-')!/{@#$%&*=-')!~{@#$..",
"                     +@#$%&*=-]^@#$%&*=-')!/{@#$%&*=-')!/{@#$%..",
"                    +@#$%&*=-]^@#$%&*=-')!/{@#$%&*=-')!/{@#$%&..",
"                   +@#$%&*=-]^@#$%&*=-')!/{@#$%&*=-')!/{@#$%&*..",
"                  +@#$%&*=-]^@#$%&*=-')!/{@#$%&*=-')!/{@#$%&*=..",
"                 +@#$%&*=-;>@#$%&*=-')!/{@#$%&*=-')!/{@#$%&*=-..",
"                +@#$%&*=-;>@#$%&*=-')!/{@#$%&*=-')!/{@#$%&*=-'..",
"               +@#$%&*=-;>@#$%&*=-')!/{@#$%&*=-')!/{@#$%&*=-')..",
"              +@#$%&*=-;>@#$%&*=-')!~{@#$%&*=-')!/{@#$%&*=-')!..",
"             +@#$%&*=-;>@#$%&*=-')!/{@#$%&*=-')!/{@#$%&*=-')!/..",
"            +@#$%&*=-;>@#$%&*=-')!~{@#$%&*=-')!/{@#$%&*=-')!/{..",
"           +@#$%&*=-;>@#$%&*=-')!~{@#$%&*=-')!/{@#$%&*=-')!/{@..",
"          +@#$%&*=-;,@#$%&*=-')!~{@#$%&*=-')!/{@#$%&*=-')!/{@#..",
"         +@#$%&*=-;,@#$%&*=-')!~{@#$%&*=-')!/{@#$%&*=-')!/{@#$..",
"        +@#$%&*=-;,@#$%&*=-')!~{@#$%&*=-')!~{@#$%&*=-')!/{@#$%..",
"       +@#$%&*=-;,@#$%&*=-')!~{@#$%&*=-')!~{@#$%&*=-')!/{@#$%&..",
"      +@#$%&*=-;,@#$%&*=-')!~{@#$%&*=-')!~{@#$%&*=-')!/{@#$%&*..",
"     +@#$%&*=-;>@#$%&*=-')!~{@#$%&*=-')!~{@#$%&*=-')!/{@#$%&*=..",
"................................................................",
"................................................................"};
