/* XPM */
static char * gripper_2_16_xpm[] = {
"16 16 10 1",
" 	c None",
".	c #636263",
"+	c #3A2D21",
"@	c #000000",
"#	c #848284",
"$	c #5B5A4B",
"%	c #5B5553",
"&	c #7C827C",
"*	c #635553",
"=	c #847E84",
"               .",
"              +.",
"             ++.",
"            ++@.",
"           ++@#.",
"          ++@#$.",
"         ++@#%+.",
"        ++@&*+@.",
"       ++@#%+@&.",
"      ++@=%+@#%.",
"     ++@#$+@=$+.",
"    ++@#$+@#%+@.",
"   ++@=$+@=$+@&.",
"  ++@#$+@#$+@&*.",
" ++@&%+@&*+@&%+.",
"................"};
