/* XPM */
static char *icon_32_xpm[] = {
/* width height ncolors chars_per_pixel */
"23 31 325 2",
/* colors */
"   c black",
" . c #1560B3",
" X c #4F565E",
" o c #0E3F74",
" O c #145BA8",
" + c #0C3868",
" @ c #060809",
" # c #423A3A",
" $ c #303B46",
" % c #1A77DC",
" & c #22558E",
" * c gray63",
" = c #1F2428",
" - c #9F9F9F",
" ; c #9D9D9D",
" : c #145DAB",
" > c #186BC6",
" , c #342C2C",
" < c #070A0D",
" 1 c #979797",
" 2 c #104886",
" 3 c #380F0F",
" 4 c #082546",
" 5 c #939393",
" 6 c #21466F",
" 7 c #1664BA",
" 8 c gray56",
" 9 c #224366",
" 0 c #16212C",
" q c #8B8B8B",
" w c #0A2E55",
" e c #1E2E41",
" r c #0D3C6F",
" t c #1D2E40",
" y c gray53",
" u c #1B4C80",
" i c #102A47",
" p c #305D8E",
" a c gray52",
" s c #2F4C6C",
" d c #330D0D",
" f c #818181",
" g c gray50",
" h c #43586F",
" j c gray49",
" k c #1661B3",
" l c #545658",
" z c #0E3E73",
" x c #3B2F2F",
" c c #797979",
" v c #220606",
" b c #777777",
" n c gray46",
" m c #145AA7",
" M c #244C78",
" N c gray45",
" B c #0F4581",
" V c #24476E",
" C c #6F6F6F",
" Z c gray42",
" A c #1F2327",
" S c #0E4076",
" D c #425367",
" F c #676767",
" G c #214061",
" H c #1A5DA6",
" J c #145CAA",
" K c #092B50",
" L c gray39",
" P c #3C3E40",
" I c gray38",
" U c #244971",
" Y c #5F5F5F",
" T c #2968AE",
" R c #5D5D5D",
" E c #5B5B5B",
" W c #255589",
" Q c #35567B",
" ! c gray35",
" ~ c #125094",
" ^ c gray34",
" / c #0A2D54",
" ( c #555555",
" ) c #535353",
" _ c #515151",
" ` c #104988",
" ' c gray31",
" ] c #1357A2",
" [ c gray30",
" { c #315984",
" } c #16569B",
" | c #4B4B4B",
".  c #10447E",
".. c #494949",
".X c #273442",
".o c gray28",
".O c #3D3030",
".+ c gray27",
".@ c #4C4242",
".# c #2F5278",
".$ c #1D0A0A",
".% c #434343",
".& c #0D3D71",
".* c #286FBD",
".= c #48535F",
".- c #411313",
".; c #1D1E21",
".: c #2C5F96",
".> c #161D24",
"., c #414141",
".< c #363F4A",
".1 c #4D4F50",
".2 c gray24",
".3 c gray23",
".4 c #290F0F",
".5 c #373737",
".6 c #254364",
".7 c #353535",
".8 c gray20",
".9 c #777879",
".0 c #114D8F",
".q c #1B3E64",
".w c #180808",
".e c #2F2F2F",
".r c #145BA9",
".t c #351414",
".y c #3C1111",
".u c #1D0303",
".i c #2D2D2D",
".p c #07192C",
".a c gray17",
".s c gray16",
".d c #0D3560",
".f c #272727",
".g c #443333",
".h c #254567",
".j c #252525",
".k c #240D0D",
".l c #2B0A0A",
".z c #232323",
".x c #1D518A",
".c c gray13",
".v c gray12",
".b c #1D1D1D",
".n c #121B26",
".m c #225C9C",
".M c #1B1B1B",
".N c #303D4A",
".B c #191919",
".V c #180101",
".C c gray9",
".Z c #464B4F",
".A c #10141A",
".S c #151515",
".D c #041222",
".F c #1F446E",
".G c #24548A",
".H c #131313",
".J c #1D62AE",
".K c #125196",
".L c #07203C",
".P c #111111",
".I c gray6",
".U c gray5",
".Y c #0B0B0B",
".T c #104A8A",
".R c #090909",
".E c #070707",
".W c #151718",
".Q c gray2",
".! c #0F457F",
".~ c #24476C",
".^ c gray1",
"./ c #2D3640",
".( c #010101",
".) c #265385",
"._ c #0A3059",
".` c #192029",
".' c #0E3E74",
".] c #3A2F2F",
".[ c #382D2D",
".{ c #AAAAAA",
".} c gray65",
".| c #2467B1",
"X  c #393A3B",
"X. c #A4A4A4",
"XX c #463434",
"Xo c #525B64",
"XO c #A2A2A2",
"X+ c #0E4077",
"X@ c #285280",
"X# c gray62",
"X$ c #3B526B",
"X% c #255F9E",
"X& c #2F3031",
"X* c #9A9A9A",
"X= c #1A0202",
"X- c gray59",
"X; c gray58",
"X: c #929292",
"X> c #0B3460",
"X, c #909090",
"X< c #391D1D",
"X1 c #451515",
"X2 c #260707",
"X3 c gray54",
"X4 c #234E7E",
"X5 c #888888",
"X6 c #47515C",
"X7 c #1F3B59",
"X8 c #09284A",
"X9 c #848484",
"X0 c #171819",
"Xq c #374B60",
"Xw c #150000",
"Xe c #808080",
"Xr c #7E7E7E",
"Xt c #125298",
"Xy c #165192",
"Xu c #2A333C",
"Xi c #4B4242",
"Xp c gray47",
"Xa c #210505",
"Xs c #767676",
"Xd c #334C69",
"Xf c #727272",
"Xg c #3C4C5E",
"Xh c #1F5694",
"Xj c gray43",
"Xk c #6C6C6C",
"Xl c #31659F",
"Xz c #1662B6",
"Xx c gray40",
"Xc c #646464",
"Xv c #0D3A6B",
"Xb c #104885",
"Xn c #606060",
"Xm c gray36",
"XM c #0B335F",
"XN c #5A5A5A",
"XB c #413131",
"XV c #52575C",
"XC c #1C3148",
"XZ c #114F93",
"XA c gray33",
"XS c #191E24",
"XD c #4D5157",
"XF c gray32",
"XG c #505050",
"XH c #281515",
"XJ c #295A90",
"XK c #4E4E4E",
"XL c white",
"XP c #4C4C4C",
"XI c #1A74D7",
"XU c gray29",
"XY c #0F437D",
"XT c #484848",
"XR c #1B426B",
"XE c #3E3131",
"XW c #464646",
"XQ c #196FCC",
"X! c #444444",
"X~ c gray26",
"X^ c #061B32",
"X/ c gray25",
"X( c #1E2B39",
"X) c #3E3E3E",
"X_ c #304965",
"X` c #3A3A3A",
"X' c gray22",
"X] c #2F0B0B",
"X[ c #22364A",
"X{ c gray21",
"X} c #1561B4",
"X| c #345476",
"o  c #343434",
"o. c #323232",
"oX c gray19",
"oo c #372D2D",
"oO c #245D9B",
"o+ c #170707",
"o@ c gray18",
"o# c #07090B",
"o$ c #0C3969",
"o% c #727374",
"o& c #2C2C2C",
"o* c #2A2A2A",
"o= c #13559E",
"o- c #282828",
"o; c gray15",
"o: c gray14",
"o> c #230C0C",
"o, c #2A0909",
"o< c #222222",
"o1 c #16202A",
"o2 c #0B0F12",
"o3 c #202020",
"o4 c gray11",
"o5 c #264B75",
"o6 c gray10",
"o7 c #2F1111",
"o8 c #082647",
"o9 c #181818",
"o0 c #161616",
"oq c #0B3461",
"ow c #1B2632",
"oe c gray8",
"or c gray7",
"ot c #3C454F",
"oy c #101010",
"ou c #1E0A0A",
"oi c #3A434D",
"op c #0E0E0E",
"oa c #1E2F42",
"os c #104B8A",
"od c gray4",
"of c #09284B",
"og c gray3",
"oh c #060606",
"oj c #040404",
"ok c #082340",
"ol c #020202",
"oz c #5D5858",
"ox c None",
/* pixels */
"oxoxoxoxoxoxor.S.So0o0.C.Co9.bo<o:oxoxoxoxoxox",
"oxoxoxoxox.i              .^.Io6o:.3oxoxoxoxox",
"oxoxoxoxox.H              .Eor.b.so&oxoxoxoxox",
"oxoxoxoxox    .n.) T 9    od.S.co&o:oxoxoxoxox",
"oxoxoxox.3     G %XI U  olop.Bo:.e.5 |oxoxoxox",
"oxoxoxox.M    .~ 7 kX(  oh.Po4o-.8X)X'oxoxoxox",
"oxoxoxoxoj     VXt Mol  .Roeo3.aX{.,oXoxoxoxox",
"oxoxox (    o1 uX+ e  .(.Uo9.zo@X`.+.% Loxoxox",
"oxoxox.z   0.x z._XS  .Qoy.Mo;o..2XT )X/oxoxox",
"oxoxoxodo2 & 2oqok.W  og.H.vo*.7X/XP ^.3oxoxox",
"oxoxox  oa O B._X^.;X0 =.X.NX&X'X! 'XN..oxoxox",
"oxoxo&  ow :XbXM.L.D.pof r.K p.2.oXF RXxXToxox",
"oxox.H  .A.JXZ.& w 4X8X>.! ] >X6XU ( IXkXWoxox",
"oxox.(    .h mos oo$XR. .KX}.*.ZXK !Xc C [oxox",
"ox.3       @o5 6XC.`orXu sXl hXW _Xm F N NXAox",
"ox.M              oh.Po4o-.8X)..XAXn ZXs f [ox",
"oxoj              .R.So3.aX{X~XP l LXj c aXFox",
" (              o# G W.#.eX  Q.mXyX_Xf jX5 b F",
"o<             <Xh ~ ` }.<oiXI ..0.q NXe q 1XG",
".e            .Fo= + / SXdX/ { J 2.=XpX9 8X, (",
"ox.Y          oO.To8.D._XqX!.1.GXYX7o% yX:XKox",
"oxXn        ol.| ` t A $ P.oXDX@.' KXVX3 Yoxox",
"oxox.f        X%XtX[.so ot.: H.0Xv i.9 nXnoxox",
"oxoxox.R      X4Xz.6o&X'XgXQ.rXb.d X fXUoxoxox",
"oxoxox ^    .^.>XJ./oX.3.+ DX|X$XoXr..oxoxoxox",
"oxoxoxox.c  oh.P.bo-.8X)XU (Xn ZXsXNoxoxoxoxox",
"oxoxoxoxoxopogor.M.joXX`X! ' ! LXn Eoxoxoxoxox",
"oxoxoxoxox #.4o>.$o+.wou.k.4o7.tXHoxoxoxoxoxox",
"oxoxoxoxox.@X]X2.uXw.uX2X] 3.-X1X<oxoxoxoxoxox",
"oxoxoxoxoxXi.l vX=.VXao, d.yX1X1X<oxoxoxoxoxox",
"oxoxoxoxoxoz x.[ ,oo.].OXB.gXXXXXEoxoxoxoxoxox"
};
