/* XPM */
static char *icon_16_xpm[] = {
/* width height ncolors chars_per_pixel */
"12 16 126 2",
/* colors */
"   c black",
" . c #0D1A27",
" X c #14161A",
" o c #182635",
" O c #2C0A0A",
" + c #9D9D9D",
" @ c #114A87",
" # c #2B3C4E",
" $ c #222324",
" % c #3C5065",
" & c #4E3838",
" * c #18599E",
" = c #726F6F",
" - c #47525F",
" ; c #717171",
" : c #374759",
" > c #0B0D10",
" , c #656565",
" < c #1E3C5E",
" 1 c gray38",
" 2 c #3D4A58",
" 3 c #145296",
" 4 c #2963A4",
" 5 c #0A2D54",
" 6 c #555555",
" 7 c #141E29",
" 8 c #0E0C0C",
" 9 c #3F2525",
" 0 c gray31",
" q c gray30",
" w c #1A3553",
" e c #494949",
" r c #104B8B",
" t c #245C98",
" y c #393939",
" u c #030404",
" i c #373737",
" p c #4E565E",
" a c gray20",
" s c #1E7BE1",
" d c #1B395A",
" f c #272727",
" g c #061E38",
" h c gray12",
" j c #145DAC",
" k c #1C3B5E",
" l c #515050",
" z c #1B1B1B",
" x c #2B5C91",
" c c #191919",
" v c #1E4977",
" b c gray9",
" n c #151515",
" m c #131313",
" M c #125196",
" N c #434242",
" B c gray5",
" V c #172D45",
" C c #353E48",
" Z c #090909",
" A c #070707",
" S c #1A5697",
" D c gray1",
" F c #010101",
" G c #2B1D1D",
" H c #AAAAAA",
" J c #23476E",
" K c #A2A2A2",
" L c #1F1E1E",
" P c #989898",
" I c #1A0202",
" U c #3F2323",
" Y c #0F1318",
" T c #0D1116",
" R c #777474",
" E c #0F1A25",
" W c #848484",
" Q c #57595B",
" ! c #010000",
" ~ c #7C7C7C",
" ^ c gray47",
" / c #0C3867",
" ( c gray43",
" ) c #372121",
" _ c #6A6A6A",
" ` c #646464",
" ' c #182B41",
" ] c #1C0303",
" [ c #626262",
" { c #314C6A",
" } c #0E1720",
" | c gray37",
".  c #313335",
".. c white",
".X c #0C2642",
".o c gray29",
".O c #484848",
".+ c #1C426C",
".@ c gray25",
".# c #3C3C3C",
".$ c #1C5390",
".% c #4F575F",
".& c #323232",
".* c gray19",
".= c gray18",
".- c #223B57",
".; c #2C2C2C",
".: c #2F3A46",
".> c #082444",
"., c gray15",
".< c #342020",
".1 c #2A0909",
".2 c #202020",
".3 c #283E56",
".4 c #381010",
".5 c #181818",
".6 c #172738",
".7 c #262829",
".8 c #32547A",
".9 c #263240",
".0 c #101010",
".q c #165BA7",
".w c gray3",
".e c #060606",
".r c #122336",
".t c None",
/* pixels */
".t.t.t.w.e A A.w n.t.t.t",
".t.t.t F ' E   D.5.t.t.t",
".t.t m Y s <   Z h.&.t.t",
".t.t D.6 * T  .0.,.*.t.t",
".t.t }.$ d   F b.;.@.t.t",
".t c.+ r.X X o.9 a.O.o.t",
".t A w M 5 g / t y 0 0.t",
".t   u k V 7.- {.@ 6 [.t",
".2         > z.  2 Q ; |",
" B       v S.3 4 j - ^ _",
" h     ..q.> # : 3.% ~ ,",
".t A  .r *.7.: x @ p 1.t",
".t.t   F J $ C.8 % [.t.t",
".t.t f ! 8 L.* N l.t.t.t",
".t.t.t.4 O ] I.1 U.t.t.t",
".t.t.t 9 ) G.< 9 &.t.t.t"
};
