/* XPM */
static char *icon_64_xpm[] = {
/* width height ncolors chars_per_pixel */
"47 64 694 2",
/* colors */
"   c black",
" . c #1560B3",
" X c #2A333D",
" o c #3F648D",
" O c #0E3F74",
" + c #114D8E",
" @ c #211D1D",
" # c #200505",
" $ c #3F5062",
" % c #145BA8",
" & c #3D1111",
" * c #092A4E",
" = c #1E0303",
" - c #1D1919",
" ; c #0C3868",
" : c #A7A7A7",
" > c #1A77DC",
" , c #2A69AD",
" < c #3A3B3C",
" 1 c #041528",
" 2 c #300E0E",
" 3 c #445B74",
" 4 c #14161A",
" 5 c #1966BA",
" 6 c #1E76D6",
" 7 c #110000",
" 8 c gray64",
" 9 c #12549C",
" 0 c gray63",
" q c #2C0A0A",
" w c #20538C",
" e c #255487",
" r c #9F9F9F",
" t c #2372C7",
" y c #3D648E",
" u c #222121",
" i c #2C527A",
" p c #9D9D9D",
" a c #1C2025",
" s c #3C536C",
" d c #061E37",
" f c #155DAC",
" g c #1F0707",
" h c #9B9B9B",
" j c #0A2C52",
" k c #2F4052",
" l c #143D69",
" z c gray60",
" x c #0D3A6C",
" c c #373E46",
" v c #216BBB",
" b c #979797",
" n c #104886",
" m c #380F0F",
" M c #252A31",
" N c #2A2B2C",
" B c #1A1919",
" V c #190101",
" C c #959595",
" Z c #394C5F",
" A c #1356A0",
" S c #181717",
" D c #939393",
" F c #414A53",
" G c #161515",
" H c gray57",
" J c #041221",
" K c #141313",
" L c #34465A",
" P c gray56",
" I c #8D8D8D",
" U c #270808",
" Y c #255180",
" T c #441414",
" R c #8B8B8B",
" E c #0A2E55",
" W c #3A536D",
" Q c #1A4F89",
" ! c #898989",
" ~ c #186DC9",
" ^ c #0D3C6F",
" / c #0C2B4D",
" ( c #313F4D",
" ) c gray53",
" _ c #1A0505",
" ` c #104A89",
" ' c #3A5D84",
" ] c gray52",
" [ c #180303",
" { c #1358A3",
" } c #082749",
" | c #1868BF",
".  c #080707",
".. c #838383",
".X c #1666BD",
".o c #330D0D",
".O c #060505",
".+ c #818181",
".@ c #305884",
".# c #1F262E",
".$ c gray50",
".% c #395879",
".& c #2E3640",
".* c #2D5681",
".= c #121314",
".- c gray49",
".; c #260A0A",
".: c #365476",
".> c #253341",
"., c #7B7B7B",
".< c #3F546B",
".1 c #0E3E73",
".2 c #797979",
".3 c #3E4349",
".4 c #0D3E72",
".5 c #1D1F22",
".6 c #323030",
".7 c #1C7DE7",
".8 c #777777",
".9 c #3F1212",
".0 c #302E2E",
".q c #0A0B0C",
".w c #3A5F87",
".e c gray46",
".r c #145AA7",
".t c #09294D",
".y c #1F1A1A",
".u c gray45",
".i c #323C47",
".p c #1768C1",
".a c #0C3767",
".s c #717171",
".d c #2B4A6B",
".f c #130101",
".g c #1A76DB",
".h c #0F4581",
".j c #345981",
".k c #6F6F6F",
".l c #082442",
".z c #283747",
".x c #383839",
".c c #282626",
".v c #12539B",
".b c #6D6D6D",
".n c #2E0B0B",
".m c #3C4854",
".M c #31373C",
".N c #1663B6",
".B c #0B325C",
".V c #2664A8",
".C c #565A5D",
".Z c #0B121A",
".A c gray42",
".S c #0E4076",
".D c dim gray",
".F c #375370",
".G c #3C434A",
".H c #114E90",
".J c #676767",
".K c #061D36",
".L c #656565",
".P c #145CAA",
".I c #092B50",
".U c gray39",
".Y c #176AC4",
".T c #3A1010",
".R c #0C396A",
".E c #1B0202",
".W c gray38",
".Q c #1A78DE",
".! c #5F5F5F",
".~ c #494C50",
".^ c #5D5D5D",
"./ c #3C5978",
".( c #111519",
".) c #5B5B5B",
"._ c gray35",
".` c #125094",
".' c #071F3A",
".] c gray34",
".[ c #061F39",
".{ c #155EAE",
".} c #0A2D54",
".| c #555555",
"X  c #2F4154",
"X. c #294F79",
"XX c #535353",
"Xo c #186CC8",
"XO c #324F6E",
"X+ c #515151",
"X@ c #3B4F63",
"X# c #1B7AE2",
"X$ c #104988",
"X% c #0A0808",
"X& c gray31",
"X* c #1357A2",
"X= c #350E0E",
"X- c gray30",
"X; c #160000",
"X: c #163659",
"X> c #1665BC",
"X, c #1B66B7",
"X< c #2B3846",
"X1 c #4B4B4B",
"X2 c #35587E",
"X3 c #494949",
"X4 c #1862B4",
"X5 c #280B0B",
"X6 c #125297",
"X7 c #0D315A",
"X8 c #07213D",
"X9 c gray28",
"X0 c #1560B1",
"Xq c #0A2F57",
"Xw c gray27",
"Xe c #434343",
"Xr c #0D3D71",
"Xt c #411313",
"Xy c #1D1E21",
"Xu c #220505",
"Xi c #37506C",
"Xp c #114B8C",
"Xa c #414141",
"Xs c #36506B",
"Xd c #104B8B",
"Xf c #3F3F3F",
"Xg c #1459A6",
"Xh c #336CAA",
"Xj c gray24",
"Xk c #150202",
"Xl c #464C53",
"Xz c #3B5B7D",
"Xx c gray23",
"Xc c #1B1515",
"Xv c #393939",
"Xb c #300C0C",
"Xn c #384859",
"Xm c #072340",
"XM c #373737",
"XN c #1C63B1",
"XB c #0B315B",
"XV c #353535",
"XC c #0F3F76",
"XZ c #1970CF",
"XA c #0E3F75",
"XS c #230909",
"XD c #030E1B",
"XF c gray20",
"XG c #210707",
"XH c #114D8F",
"XJ c #313131",
"XK c #35506D",
"XL c #1F2E3D",
"XP c #2F2F2F",
"XI c #092A4F",
"XU c #3C1111",
"XY c #385E87",
"XT c #1D0303",
"XR c #020910",
"XE c #2D2D2D",
"XW c #323D49",
"XQ c gray17",
"X! c #05172A",
"X~ c #0F4683",
"X^ c #1F67B7",
"X/ c gray16",
"X( c #3E4B58",
"X) c #082544",
"X_ c #38597D",
"X` c #100000",
"X' c #272727",
"X] c #2D0C0C",
"X[ c #1664B8",
"X{ c #0B335E",
"X} c #3B76B8",
"X| c #252525",
"o  c #3A5675",
"o. c #0E4178",
"oX c #03101E",
"oo c #232323",
"oO c #336499",
"o+ c #290808",
"o@ c #114F92",
"o# c gray13",
"o$ c #061E38",
"o% c #314255",
"o& c #155DAD",
"o* c #0A2C53",
"o= c gray12",
"o- c #145DAC",
"o; c #2F4053",
"o: c #092C52",
"o> c #2E4052",
"o, c #134C8A",
"o< c #236DBE",
"o1 c #1D1D1D",
"o2 c #1C0505",
"o3 c #323F4C",
"o4 c #1B1B1B",
"o5 c #304C6B",
"o6 c #3A4C61",
"o7 c #343C44",
"o8 c #4A4D53",
"o9 c #242A31",
"o0 c #191919",
"oq c #180101",
"ow c #18487B",
"oe c gray9",
"or c #0C2641",
"ot c #324963",
"oy c #11457E",
"ou c #0B3561",
"oi c #151515",
"op c #1A74D6",
"oa c #0F437C",
"os c #2E363E",
"od c #131313",
"of c #386597",
"og c #125196",
"oh c #07203C",
"oj c #111111",
"ok c #155FB0",
"ol c #0A2E56",
"oz c gray6",
"ox c #431414",
"oc c #240606",
"ov c #186DCA",
"ob c #335071",
"on c gray5",
"om c #0D3C70",
"oM c #0B0B0B",
"oN c #1A6CC2",
"oB c #104A8A",
"oV c #09294B",
"oC c #090909",
"oZ c #170303",
"oA c #070707",
"oS c #373B40",
"oD c #01060B",
"oF c #364A60",
"oG c #320D0D",
"oH c gray2",
"oJ c #1F5792",
"oK c #041425",
"oL c #300B0B",
"oP c gray1",
"oI c #125399",
"oU c #010101",
"oY c #364556",
"oT c #303539",
"oR c #3B5572",
"oE c #1561B3",
"oW c #230808",
"oQ c #186FCD",
"o! c #0D3E73",
"o~ c #221E1E",
"o^ c #3E1212",
"o/ c #1F0404",
"o( c #757576",
"o) c #AAAAAA",
"o_ c #196AC4",
"o` c #387DC8",
"o' c gray66",
"o] c #417DBD",
"o[ c #104783",
"o{ c gray65",
"o} c #310F0F",
"o| c #041628",
"O  c #A4A4A4",
"O. c #13559D",
"OX c #2F0D0D",
"Oo c #082443",
"OO c #1D75D5",
"O+ c #1763B8",
"O@ c #A2A2A2",
"O# c #1663B7",
"O$ c #0B325D",
"O% c #A0A0A0",
"O& c #2B0909",
"O* c #1971D1",
"O= c #0E4077",
"O- c #114E91",
"O; c #575555",
"O: c gray61",
"O> c #3A4149",
"O, c #2F5073",
"O< c #1F1E1E",
"O1 c #145CAB",
"O2 c #1E0606",
"O3 c #9A9A9A",
"O4 c #4E5256",
"O5 c #1D1C1C",
"O6 c #171B20",
"O7 c #314D6B",
"O8 c #391010",
"O9 c #1A0202",
"O0 c #05182C",
"Oq c gray59",
"Ow c #4A4E52",
"Oe c #370E0E",
"Or c #1457A1",
"Ot c gray58",
"Oy c #27374A",
"Ou c #929292",
"Oi c #0B3460",
"Op c #909090",
"Oa c #2A0B0B",
"Os c #0E427A",
"Od c #8E8E8E",
"Of c #071F3B",
"Og c #1760B1",
"Oh c #374453",
"Oj c #111010",
"Ok c #314357",
"Ol c #451515",
"Oz c gray55",
"Ox c #260707",
"Oc c #0F0E0E",
"Ov c gray54",
"Ob c #2E5075",
"On c #186CC9",
"Om c #0D0C0C",
"OM c #4D729A",
"ON c #888888",
"OB c #47515C",
"OV c #515152",
"OC c #0B0A0A",
"OZ c #303E4C",
"OA c #868686",
"OS c #190404",
"OD c #1459A4",
"OF c #09284A",
"OG c #293B4F",
"OH c #1359A3",
"OJ c #848484",
"OK c #434D58",
"OL c #333B45",
"OP c #387AC4",
"OI c #070606",
"OU c #0C3664",
"OY c gray51",
"OT c #150000",
"OR c #16569C",
"OE c #5B5D5F",
"OW c #320C0C",
"OQ c #808080",
"O! c #0F447E",
"O~ c #131415",
"O^ c #7E7E7E",
"O/ c #33363B",
"O( c #125298",
"O) c #374656",
"O_ c #7C7C7C",
"O` c #1560B2",
"O' c gray48",
"O] c #344253",
"O[ c gray47",
"O{ c #401313",
"O} c #221D1D",
"O| c #210505",
"+  c #767676",
"+. c #405062",
"+X c #747474",
"+o c #2E5C8F",
"+O c #2D2B2B",
"++ c #727272",
"+@ c #140202",
"+# c #2B2929",
"+$ c gray44",
"+% c #0F4681",
"+& c #4A5C6F",
"+* c gray43",
"+= c #33383E",
"+- c #12549B",
"+; c #072341",
"+: c #6C6C6C",
"+> c #2D0A0A",
"+, c #415770",
"+< c #1662B6",
"+1 c #2B64A3",
"+2 c #252323",
"+3 c #6A6A6A",
"+4 c #0E3F76",
"+5 c #686868",
"+6 c #2C4158",
"+7 c #3C424A",
"+8 c #200707",
"+9 c gray40",
"+0 c #404144",
"+q c #646464",
"+w c #196BC6",
"+e c #384F67",
"+r c #0D3A6B",
"+t c #375E87",
"+y c #1C0303",
"+u c #626262",
"+i c #374D66",
"+p c #1658A2",
"+a c #104885",
"+s c #05172B",
"+d c #606060",
"+f c #13569F",
"+g c gray37",
"+h c #082545",
"+j c #0F0000",
"+k c #1C65B5",
"+l c #3C4957",
"+z c gray36",
"+x c #1664B9",
"+c c #0B335F",
"+v c #36577C",
"+b c #2C0C0C",
"+n c #30363E",
"+m c #2A4663",
"+M c #5A5A5A",
"+N c #1972D3",
"+B c #0E4179",
"+V c #585858",
"+C c #280808",
"+Z c #1C80ED",
"+A c #114F93",
"+S c #565656",
"+D c #656668",
"+F c #646667",
"+G c gray33",
"+H c #345070",
"+J c #39516B",
"+K c #0D3C6E",
"+L c gray32",
"+P c #1B0505",
"+I c #505050",
"+U c #4E4E4E",
"+Y c white",
"+T c #170101",
"+R c #536D8B",
"+E c #340D0D",
"+W c #4C4C4C",
"+Q c #1666BC",
"+! c #0B3562",
"+~ c #050303",
"+^ c #1A74D7",
"+/ c gray29",
"+( c #0F437D",
"+) c #484848",
"+_ c #42566D",
"+` c #270A0A",
"+' c #464646",
"+] c #155FB1",
"+[ c #444444",
"+{ c #195EAB",
"+} c #230606",
"+| c #186DCB",
"@  c #4D535A",
"@. c gray26",
"@X c #114C8C",
"@o c #061B32",
"@O c #221C1C",
"@+ c gray25",
"@@ c #1A1B1E",
"@# c #09294C",
"@$ c #3E3E3E",
"@% c #1768C0",
"@& c #0C3766",
"@* c #474D54",
"@= c #3C3C3C",
"@- c #314B66",
"@; c #414C58",
"@: c #3A3A3A",
"@> c #0F4580",
"@, c #041426",
"@< c #3E6897",
"@1 c gray22",
"@2 c #2F0B0B",
"@3 c #12539A",
"@4 c #32373C",
"@5 c gray21",
"@6 c #2B343F",
"@7 c #0A305A",
"@8 c #454648",
"@9 c #343434",
"@0 c #2380E6",
"@q c #335275",
"@w c #3D638C",
"@e c #220808",
"@r c #686767",
"@t c #323232",
"@y c #061D35",
"@u c #4672A2",
"@i c gray19",
"@p c #1A5DA5",
"@a c #1E0404",
"@s c #495159",
"@d c gray18",
"@f c #333E4A",
"@g c #232C37",
"@h c #384E66",
"@j c #2D5D90",
"@k c #3B1010",
"@l c #2C2C2C",
"@z c #3C4D60",
"@x c #06182B",
"@c c #214A77",
"@v c #417DBE",
"@b c #364C64",
"@n c #1B78DE",
"@m c #104784",
"@M c #404C5A",
"@N c #05162A",
"@B c #3A3C3D",
"@V c #0F4783",
"@C c #2A2A2A",
"@Z c #395A7E",
"@A c #110101",
"@S c #13559E",
"@D c #282828",
"@F c #082444",
"@G c gray15",
"@H c #1663B8",
"@J c #0A121B",
"@K c gray14",
"@L c #1971D2",
"@P c #2A0909",
"@I c #224264",
"@U c #222222",
"@Y c #071F39",
"@T c #2C629C",
"@R c #1C7FEC",
"@E c #565555",
"@W c #202020",
"@Q c #405367",
"@! c #155EAD",
"@~ c #3F4245",
"@^ c #2E3031",
"@/ c #1E1E1E",
"@( c #33404D",
"@) c #186CC7",
"@_ c #0D3B6D",
"@` c #4D5256",
"@' c gray11",
"@] c #1B7AE1",
"@[ c #104987",
"@{ c gray10",
"@} c #3A4D61",
"@| c #190202",
"#  c #360E0E",
"#. c #1357A1",
"#X c #496C94",
"#o c #082647",
"#O c #181818",
"#+ c #170000",
"#@ c #2D3A47",
"## c #3769A0",
"#$ c #476A92",
"#% c #161616",
"#& c #0B3461",
"#* c #252628",
"#= c #35475C",
"#- c gray8",
"#; c #34475B",
"#: c #1973D5",
"#> c #0E427B",
"#, c gray7",
"#< c #101010",
"#1 c #2060A7",
"#2 c #250707",
"#3 c #0E0E0E",
"#4 c #421313",
"#5 c #0D3D70",
"#6 c #234E7F",
"#7 c #224E7E",
"#8 c #0C0C0C",
"#9 c #3B4044",
"#0 c #104B8A",
"#q c #051A30",
"#w c gray4",
"#e c #3A5E85",
"#r c #1459A5",
"#t c #09284B",
"#y c #181A1B",
"#u c gray3",
"#i c #2D4B6B",
"#p c #160202",
"#a c #0C3665",
"#s c #060606",
"#d c #141617",
"#f c #310C0C",
"#g c #0F447F",
"#h c #040404",
"#j c #020202",
"#k c #125299",
"#l c #1762B5",
"#z c #0B315A",
"#x c #2B445F",
"#c c None",
/* pixels */
"#c#c#c#c#c#c#c#c#c#c#c#c+G+/X1X-+I+LXX.|.]._.).^.!+u.U.L.L.J+5+3.A+:++#c#c#c#c#c#c#c#c#c#c#c#c",
"#c#c#c#c#c#c#c#c#c#c#c !                                #joH#u#8#3ojoA R#c#c#c#c#c#c#c#c#c#c#c",
"#c#c#c#c#c#c#c#c#c#c#cX9                              oU#s#8ojoe@'o#o0X-#c#c#c#c#c#c#c#c#c#c#c",
"#c#c#c#c#c#c#c#c#c#c#c#3                              #j#uonod#O@/oo@G#-#c#c#c#c#c#c#c#c#c#c#c",
"#c#c#c#c#c#c#c#c#c#c h#j                              #hoCoz#-@{o=X|@CoM p#c#c#c#c#c#c#c#c#c#c",
"#c#c#c#c#c#c#c#c#c#c+u                                oHoM#<#%o4o#@G@lo0+9#c#c#c#c#c#c#c#c#c#c",
"#c#c#c#c#c#c#c#c#c#c@'            oA@6 LO].q        #joAon#,#Oo1oo@D@dXQ@G#c#c#c#c#c#c#c#c#c#c",
"#c#c#c#c#c#c#c#c#c :#h        @g@wX}@0@R+Z#$oU      oPoC#3#-o0o=@K@CXPXV#8#c#c#c#c#c#c#c#c#c#c",
"#c#c#c#c#c#c#c#c#cO'          XzX#@n >.g > y        oH#w#<oio4@W@GXQXJ@5oeO^#c#c#c#c#c#c#c#c#c",
"#c#c#c#c#c#c#c#c#cXF           'O*oQovov+|@h      oUoA#8#,oeo1@UX'XE@t@1@l@$#c#c#c#c#c#c#c#c#c",
"#c#c#c#c#c#c#c#c#c#u          @Z.p+Q+xX[X,os      oP#u#3odo0@/@KX/XP@9@:Xj#,#c#c#c#c#c#c#c#c#c",
"#c#c#c#c#c#c#c#c P            .%+]o- %.rXY#u      #h#wozoi@{@WX|XQ@i@5XxXaod D#c#c#c#c#c#c#c#c",
"#c#c#c#c#c#c#c#c+I            o #.+-O(ogXn        #soMoj#%@'o#X'@l@tXMXj@.XQ.]#c#c#c#c#c#c#c#c",
"#c#c#c#c#c#c#c#coj          oUX_O-#0@[ YXy      #j#uonod#O@/ooX/@d@9XvXf+[Xeo1#c#c#c#c#c#c#c#c",
"#c#c#c#c#c#c#c r#j          @@ e+%Os+4 Z        #hoCoz#-@{o=X|@C@iXVXx@++'X1ojO@#c#c#c#c#c#c#c",
"#c#c#c#c#c#c#c+3          #u s+(.4.R#ao7        oHoM#<#%o4o#@G@lXJXM@=@.X9X-X'.s#c#c#c#c#c#c#c",
"#c#c#c#c#c#c#c@U        #d+_oyomOU#zX:#*      #joAon#,#Oo1oo@DXEXF@1@$XeX3+UXeXJ#c#c#c#c#c#c#c",
"#c#c#c#c#c#c#coH      o9X2o[.1OUol#t k#s      oPoC#3#-o0o=@K@CXPXV@:@+XwX1+I+G#,#c#c#c#c#c#c#c",
"#c#c#c#c#c#cOQ       X+o +oa.R@7OFX8OL        oH#w#<oio4@W@GXQXJ@5@=XaX9+W+L.]o= )#c#c#c#c#c#c",
"#c#c#c#c#c#c@=    oH.w 9 `.SOUo:Xm#q.M      oU#s#8ojoe@'@UX'XE@t@1XjXe+)+UXX._@++/#c#c#c#c#c#c",
"#c#c#c#c#c#c#w    o3+{@3 n.1Oi.t.' 1@4oU    oP#u#3odo0@/@KX/XP@9@:XfXw+/+I.|+M.)o0#c#c#c#c#c#c",
"#c#c#c#c#cOtoU    oFo-oI n.4+c@#.[@,.Z.xoU  #h#woe NoS@KX|XQ@i@5XxXa+'+WX++S+z.W#OO3#c#c#c#c#c",
"#c#c#c#c#c+V      +i.{.vX$ OouXIoh+sXD@J+=+no7O)@-@c QXY 3.3@tXMXj@.+)X-XX+V+g.UXx+u#c#c#c#c#c",
"#c#c#c#c#coi      @b+]@SXd+B.a EX)@y@NoKX!.K+hol ;Os@X+fO`XhOBXv@$+[X3X&+G+M.!.L+zX'#c#c#c#c#c",
"#c#c#c#cO oP      XWX4 {O-@>+KX{.IOo.' dOf@F.I+c ^.ho@OD.NOn@u@=@++'X1X++S.).W+9+:oi :#c#c#c#c",
"#c#c#c#c++        #y ,.P#kX$o..R.B j#t }oVo*O$.R+B `@3O1.XXZOP+[@.X9X-+L+V.^+u+5.b@i.2#c#c#c#c",
"#c#c#c#c@C        oU#eO`X*o@@m.S+r+!.B#z.B+!+rO=@m+A {oE.Y#:o`+'XeX3+U+G._.!+q+3.k._Xj#c#c#c#c",
"#c#c#c#c#s          OZ 5 f@S.H@mOs.4@_ x@_o!#>+aO-+f@!.XoQ.Qo]+[XwX1+I.|.)+d+9.A.s+Xoe#c#c#c#c",
"#c#c#c )            oH o@H.P@S+AoB@V#g#6.: W+voJ+fO1+x@)+^.7+RXaX9+W+L.]+z+u.J.b++O[@K P#c#c#c",
"#c#c#cXw              O6@<O+o-+p@joROh.5oC#8oiO/+,##o_+N@]@v.~Xe+)+UXX._+g+q.D.k+XO'X+.|#c#c#c",
"#c#c#con                 4@(#=.i.=    oP#u#3odo0@/@^+&#XOM@*Xf+[+/X&.|+M+d.L.A+$+ .,.8o##c#c#c",
"#c#c zoU                              #h#wozoi@{@WX|XQ@i@5XxXa+'+WX++S+z.W.J+:++.8.-OY@'O%#c#c",
"#c#c+d                                #soMoj#%@'o#X'@l@tXMXj@.+)X-XX+V+g.U+5+*.u.2O^OJ+'+:#c#c",
"#c#c@{                              #joAon#,#Oo1oo@D@dXFXv@$+[X3X&+G+M.!.L+3+$.e.,OQOA.u@t#c#c",
"#co{#h                              #hoCoz#-@{o=X|@C@iXVXx@++'X1X+XX+S.^+9+:.s.8O_OY ) Io0#c#c",
"#c.2                                oHO~o%@q.jo6@G@lXJXM@=@.X(ob i#7ow@I.C.b.uO[O^.. !OdXMOY#c",
"#cXJ                              #jX<.*OH.rX0X^+lXEXF@1+7.@+wO#Xg.`@VXr@;.k.eO'OQ ] ROp+:+)#c",
"#c#u                            .(O,ORO-XdXH.vo&+t@dXV <+1op.YoEX*.HO!@_oY.s+ O_.+ )OzOuOu@/#c",
" I                              O7+f `+B.4.S@m@3#1#9@5@=@T@L@%.{O.XpOs ;o>++O[.-..ONOd D z@DOq",
"+$                            .>@p +XA+!@7+c ^X$#r+.@1Xj@}oNX>.P#k@[XC+6@ +X.2.$OJOv P CO3+U+:",
"#coz                        oA+o A@>OU.t+;#o.B+B#k@QXvXf+[+e#lXg.`@V lOE+$+ .,.+OAOz H b !@/ 8",
"#c RoU                      .#+kO(.Sol@Yo|@o.t@_.H.<XxXa+'X1XsOr.HO!@_X +F.8.-OYON I DOqoo R#c",
"#c#c@.                      OG+<+A#5 *O0XR JOo.ao,OKXj@.+)X-OVX.XpOs ;XqOy+DO^OJ ! POt+)+d#c#c",
"#c#co{#w                    #i+<+Aom.t@xoDoX.l@&.F@:@$+[X3X&+GX@@[+4OUo*+;.GOQOA R H.sXE#c#c#c",
"#c#c#c.+oU                  Ob+xX6XA.}O>oT.& (.m@BXx@+XwX1+IO4o5X~XrOi *X8 cOY ) IONo4O:#c#c#c",
"#c#c#c#c@9                  #x@%+f#g#&#@o#@G@lXJXM@=@.@8@MXK w.HO!@_XBOFo$Ow.. !Od@CO^#c#c#c#c",
"#c#c#c#c 0oA                .z ~.P@X.4Ok@U@DXEXF@1@$Xi.V |.{O.XdOs ;Xq+hXLo( ]OvXXX1#c#c#c#c#c",
"#c#c#c#c#c+                  a t@HO. not@KX/XP@9@:@~o<oQX>.P#k@[+4OUo*or@`.+ )+X@U#c#c#c#c#c#c",
"#c#c#c#c#c#c@G              #uoOXook 9+H@GXQXJ@5@=+0 vOnO#Xg.`X~XrOi /Xl.-..OJ@' D#c#c#c#c#c#c",
"#c#c#c#c#c#cO:oH          oU#so; 6.YOg@zX'XE@t@1Xj@.+JXN .#..HO!@_X7 FO[.$OJXV+*#c#c#c#c#c#c#c",
"#c#c#c#c#c#c#c.D          #j#uozofOO./@GX/@d@9XvXf+[+/o8 $XO.d+m#;@s+X.,.++z@1#c#c#c#c#c#c#c#c",
"#c#c#c#c#c#c#c#c@'        #h#woz M@f@UX|XQ@i@5XxXa+'X1X++S+z.W.J+:++.8.-+Xo4O@#c#c#c#c#c#c#c#c",
"#c#c#c#c#c#c#c#cOqoP      #soMoj#%@'o#X'@l@tXMXj@.+)X-XX+V.^.U+5+*.u.2.-@WON#c#c#c#c#c#c#c#c#c",
"#c#c#c#c#c#c#c#c#c+M    #joAon#,#Oo1oo@D@dXFXv@$+[X3X&+G+M.!.L+3+$.e.,@++M#c#c#c#c#c#c#c#c#c#c",
"#c#c#c#c#c#c#c#c#c#cod  oPoC#3#-o0o=@K@CXPXV@:@+XwX1+I+S.).W+9+:.s.8.WX/#c#c#c#c#c#c#c#c#c#c#c",
"#c#c#c#c#c#c#c#c#c#cOu#w+~.OOI. X%OCOmOcOj K G S BO5O< u+2.c+#+O.0.6 S p#c#c#c#c#c#c#c#c#c#c#c",
"#c#c#c#c#c#c#c#c#c#c#c -.;oW+8o2OS#p.fX`+j.f#pOSo2 g@e.;X5+bOXo}o}o}Xc#c#c#c#c#c#c#c#c#c#c#c#c",
"#c#c#c#c#c#c#c#c#c#c#co~.o@2O&OxXu@a@|OToqXTO|#2@P.noGOe@k.9 TOlOlOl@O#c#c#c#c#c#c#c#c#c#c#c#c",
"#c#c#c#c#c#c#c#c#c#c#co~OW+>o+#2 #+yoqX;O9@a+} UO&oL+E m &XtOlOlOlOl@O#c#c#c#c#c#c#c#c#c#c#c#c",
"#c#c#c#c#c#c#c#c#c#c#cO}Xb q U+}o/O9X;+T+y #oco++>#f# .To^oxOlOlOlOl@O#c#c#c#c#c#c#c#c#c#c#c#c",
"#c#c#c#c#c#c#c#c#c#c#cO}.n@POxO|XT VOT@| =XuOx@P@2.o mXUO{OlOlOlOlOl@O#c#c#c#c#c#c#c#c#c#c#c#c",
"#c#c#c#c#c#c#c#c#c#c#c @ q+Coco/.E#+#+.Eo/oc+C q#fX=O8o^#4OlOlOlOlOl@O#c#c#c#c#c#c#c#c#c#c#c#c",
"#c#c#c#c#c#c#c#c#c#c#c @O2+P [Xk@A+j 7+@oZ _O2XGXS+`OaX] 2o}o}o}o}o}.y#c#c#c#c#c#c#c#c#c#c#c#c",
"#c#c#c#c#c#c#c#c#c#c#c.k@E@E@E@E.|.|@E@E@E@E@E@E@EO;O;O;O;O;O;O;O;O;@r#c#c#c#c#c#c#c#c#c#c#c#c"
};
