/* XPM */
static char * menu_2_32_xpm[] = {
"32 32 105 2",
"  	c None",
". 	c #000000",
"+ 	c #181818",
"@ 	c #313131",
"# 	c #474747",
"$ 	c #3D3D3D",
"% 	c #666666",
"& 	c #939393",
"* 	c #808080",
"= 	c #565656",
"- 	c #4D4D4D",
"; 	c #494949",
"> 	c #8F8F8F",
", 	c #999999",
"' 	c #101010",
") 	c #070707",
"! 	c #646464",
"~ 	c #636363",
"{ 	c #343434",
"] 	c #333333",
"^ 	c #7C7C7C",
"/ 	c #2D2D2D",
"( 	c #262627",
"_ 	c #A8A9A9",
": 	c #BCBCBC",
"< 	c #A5A6A6",
"[ 	c #212222",
"} 	c #1C1C1C",
"| 	c #595959",
"1 	c #171718",
"2 	c #A0A0A1",
"3 	c #CCCCCC",
"4 	c #9B9B9C",
"5 	c #141414",
"6 	c #4E4E4E",
"7 	c #4B4B4B",
"8 	c #797979",
"9 	c #060606",
"0 	c #7B7C7D",
"a 	c #CBCBCB",
"b 	c #747576",
"c 	c #050505",
"d 	c #424242",
"e 	c #383838",
"f 	c #969696",
"g 	c #515253",
"h 	c #C5C6C6",
"i 	c #C4C4C4",
"j 	c #4B4C4D",
"k 	c #020202",
"l 	c #5F5F5F",
"m 	c #828282",
"n 	c #272727",
"o 	c #2E2E2F",
"p 	c #B6B6B7",
"q 	c #B2B3B3",
"r 	c #29292A",
"s 	c #6B6B6B",
"t 	c #484848",
"u 	c #9A9B9B",
"v 	c #949596",
"w 	c #111111",
"x 	c #535353",
"y 	c #545454",
"z 	c #6F6F6F",
"A 	c #040404",
"B 	c #747575",
"C 	c #CACACA",
"D 	c #6D6E6F",
"E 	c #020203",
"F 	c #404040",
"G 	c #3A3A3A",
"H 	c #979797",
"I 	c #909090",
"J 	c #010101",
"K 	c #232425",
"L 	c #8B8B8B",
"M 	c #1D1D1D",
"N 	c #707070",
"O 	c #5A5A5A",
"P 	c #656565",
"Q 	c #323232",
"R 	c #414141",
"S 	c #878787",
"T 	c #464646",
"U 	c #505050",
"V 	c #989898",
"W 	c #0B0B0B",
"X 	c #3E3E3E",
"Y 	c #353535",
"Z 	c #5D5D5D",
"` 	c #6C6C6C",
" .	c #171717",
"..	c #3B3B3B",
"+.	c #393939",
"@.	c #8A8A8A",
"#.	c #7A7A7A",
"$.	c #030303",
"%.	c #818181",
"&.	c #7B7B7B",
"*.	c #787878",
"=.	c #848484",
"-.	c #121212",
";.	c #252525",
">.	c #151515",
". . . . . . . . . . . . . . .                                   ",
". . . . . . . . . . . . . . .                                   ",
". . . . . . . . . . . . . . . . . . . . . . . . . . . . . . . . ",
". . . + @ @ @ @ @ # @ . . . . . . . . . . . . . . . . . . . . . ",
". . . $ % % % % % & * . . . . . . . . . . . . . . . . . . . . . ",
". . . = % - ; ; ; > , ' . . . . . . . . . . . . . . . . . . . . ",
". . ) ! ~ { ] ] ] ^ , / . ( _ : : : : : : : : : : : : : : : < [ ",
". . } % | ] ] ] ] ! , = . . 1 2 3 3 3 3 3 3 3 3 3 3 3 3 3 4 5 . ",
". . ] % 6 ] ] ] ] 7 , 8 . . . 9 0 a 3 3 3 3 3 3 3 3 3 a b c . . ",
". . ; % d ] ] ] ] e f f 9 . . . . g h 3 3 3 3 3 3 3 i j . . . . ",
". k l % e ] ] ] ] ] m , n . . . . . o p 3 3 3 3 3 q r . . . . . ",
". ' % l ] ] ] ] ] ] s , t . . . . . . 5 u 3 3 3 v w . . . . . . ",
". n % x ] ] ] ] ] ] y , z . . . . . . . A B C D E . . . . . . . ",
". F % ; ] ] ] ] ] ] G H I J . . . . . . . . K . . . . . . . . . ",
". x % $ ] ] ] ] ] ] ] L , M . . . . . . . . . . . . . . .       ",
") % ~ { ] ] ] ] ] ] ] N , d . . . . . . . . . . . . . . .       ",
"M % O ] ] ] ] ] ] ] ] | , P . . . . . . . . . . . . . . .       ",
"Q % 6 ] ] ] ] ] ] ] ] R , S J . .                               ",
"T % U ] ] ] ] ] ] ] ] T , V W . .                               ",
"+ ! P X ] ] ] ] ] ] Y S , = . . .                               ",
". e % Z Y ] ] ] ] ] ` , m 9 . . .                               ",
". A = % - ] ] ] ] 7 V H } . . . .                               ",
". .  .P P ..] ] +.@., 6 . . . . .                               ",
". . . $ % ; ] ] y , #.$.. . . . .                               ",
". . . X %.&.*.*.=., = . . . . . .                               ",
". . . ; , , , , , , = . . . . . .                               ",
". . . -.;.;.;.;.;.;.>.. . . . . .                               ",
". . . . . . . . . . . . . . . . .                               ",
". . . . . . . . . . . . . . . . .                               ",
". . . . . . . . . . . . . . . . .                               ",
"                                                                ",
"                                                                "};
