/* XPM */
static char * menu_2_64_xpm[] = {
"64 64 165 2",
"  	c None",
". 	c #000000",
"+ 	c #5E5E5E",
"@ 	c #626262",
"# 	c #878787",
"$ 	c #939393",
"% 	c #313131",
"& 	c #0A0A0A",
"* 	c #636363",
"= 	c #666666",
"- 	c #8D8D8D",
"; 	c #999999",
"> 	c #555555",
", 	c #1F1F1F",
"' 	c #777777",
") 	c #010101",
"! 	c #3D3D3D",
"~ 	c #616161",
"{ 	c #606060",
"] 	c #8B8B8B",
"^ 	c #0C0C0C",
"/ 	c #4D4D4D",
"( 	c #3F3F3F",
"_ 	c #333333",
": 	c #818181",
"< 	c #050505",
"[ 	c #5F5F5F",
"} 	c #646464",
"| 	c #393939",
"1 	c #656565",
"2 	c #474747",
"3 	c #0A0B0B",
"4 	c #7F8183",
"5 	c #ABABAB",
"6 	c #77797A",
"7 	c #181818",
"8 	c #585858",
"9 	c #6E6E6E",
"0 	c #0D0E0E",
"a 	c #808182",
"b 	c #CBCBCB",
"c 	c #CCCCCC",
"d 	c #CACACB",
"e 	c #757677",
"f 	c #09090A",
"g 	c #2C2C2C",
"h 	c #525252",
"i 	c #969696",
"j 	c #060606",
"k 	c #030303",
"l 	c #585A5B",
"m 	c #C8C8C8",
"n 	c #C4C4C4",
"o 	c #4D4E50",
"p 	c #020202",
"q 	c #444444",
"r 	c #858585",
"s 	c #252525",
"t 	c #323435",
"u 	c #B9BABA",
"v 	c #B1B2B2",
"w 	c #2A2C2D",
"x 	c #5A5A5A",
"y 	c #3C3C3C",
"z 	c #494949",
"A 	c #171818",
"B 	c #9FA1A2",
"C 	c #949698",
"D 	c #121212",
"E 	c #0F0F0F",
"F 	c #575757",
"G 	c #686868",
"H 	c #060607",
"I 	c #7B7D7F",
"J 	c #CACACA",
"K 	c #C9C9C9",
"L 	c #6E7173",
"M 	c #232323",
"N 	c #434343",
"O 	c #535455",
"P 	c #C1C2C3",
"Q 	c #BEBFC0",
"R 	c #48494A",
"S 	c #353535",
"T 	c #4C4C4C",
"U 	c #363636",
"V 	c #8C8C8C",
"W 	c #303132",
"X 	c #B2B2B3",
"Y 	c #AAABAC",
"Z 	c #272829",
"` 	c #505050",
" .	c #787878",
"..	c #3B3B3B",
"+.	c #17191A",
"@.	c #979899",
"#.	c #8D8E8F",
"$.	c #121314",
"%.	c #090909",
"&.	c #070808",
"*.	c #747779",
"=.	c #686B6D",
"-.	c #101010",
";.	c #5C5C5C",
">.	c #7F7F7F",
",.	c #4C4E4F",
"'.	c #C2C2C3",
").	c #BCBDBD",
"!.	c #424344",
"~.	c #010102",
"{.	c #303030",
"].	c #565656",
"^.	c #3A3A3A",
"/.	c #919191",
"(.	c #959595",
"_.	c #0E0E0E",
":.	c #29292A",
"<.	c #B0B3B4",
"[.	c #A8ABAD",
"}.	c #202122",
"|.	c #454545",
"1.	c #2D2D2D",
"2.	c #0F1010",
"3.	c #919293",
"4.	c #CBCCCC",
"5.	c #87888A",
"6.	c #090A0A",
"7.	c #535353",
"8.	c #6A6A6A",
"9.	c #050606",
"0.	c #6D6F70",
"a.	c #C8C9C9",
"b.	c #626365",
"c.	c #4B4B4B",
"d.	c #4B4E50",
"e.	c #404143",
"f.	c #262626",
"g.	c #383838",
"h.	c #929292",
"i.	c #8F8F8F",
"j.	c #4A4A4A",
"k.	c #8A8A8A",
"l.	c #4E4E4E",
"m.	c #707070",
"n.	c #080808",
"o.	c #373737",
"p.	c #737373",
"q.	c #131313",
"r.	c #2A2A2A",
"s.	c #545454",
"t.	c #898989",
"u.	c #484848",
"v.	c #747474",
"w.	c #424242",
"x.	c #5B5B5B",
"y.	c #848484",
"z.	c #040404",
"A.	c #343434",
"B.	c #272727",
"C.	c #464646",
"D.	c #111111",
"E.	c #838383",
"F.	c #6F6F6F",
"G.	c #0D0D0D",
"H.	c #7C7C7C",
". . . . . . . . . . . . . . . . . . . . . . . . . . . . .                                                                       ",
". . . . . . . . . . . . . . . . . . . . . . . . . . . . .                                                                       ",
". . . . . . . . . . . . . . . . . . . . . . . . . . . . .                                                                       ",
". . . . . . . . . . . . . . . . . . . . . . . . . . . . .                                                                       ",
". . . . . . . . . . . . . . . . . . . . . . . . . . . . .                                                                       ",
". . . . . . . . . . . . . . . . . . . . . . . . . . . . . . . . . . . . . . . . . . . . . . . . . . . . . . . . . . . . . . . . ",
". . . . . . . . . . . . . . . . . . . . . . . . . . . . . . . . . . . . . . . . . . . . . . . . . . . . . . . . . . . . . . . . ",
". . . . . . . + @ @ @ @ @ @ @ @ @ @ # $ $ % . . . . . . . . . . . . . . . . . . . . . . . . . . . . . . . . . . . . . . . . . . ",
". . . . . . & * = = = = = = = = = = - ; ; > . . . . . . . . . . . . . . . . . . . . . . . . . . . . . . . . . . . . . . . . . . ",
". . . . . . , = = = = = = = = = = = - ; ; ' ) . . . . . . . . . . . . . . . . . . . . . . . . . . . . . . . . . . . . . . . . . ",
". . . . . . ! = = = ~ { { { { { { { ] ; ; ; ^ . . . . . . . . . . . . . . . . . . . . . . . . . . . . . . . . . . . . . . . . . ",
". . . . . . / = = = ( _ _ _ _ _ _ _ : ; ; ; _ . . . . . . . . . . . . . . . . . . . . . . . . . . . . . . . . . . . . . . . . . ",
". . . . . < [ = = } | _ _ _ _ _ _ _ 1 ; ; ; 2 . . . 3 4 5 5 5 5 5 5 5 5 5 5 5 5 5 5 5 5 5 5 5 5 5 5 5 5 5 5 5 5 5 5 5 5 5 5 6 < ",
". . . . . 7 = = = + _ _ _ _ _ _ _ _ 8 ; ; ; 9 . . . . 0 a b c c c c c c c c c c c c c c c c c c c c c c c c c c c c c c d e f . ",
". . . . . g = = = h _ _ _ _ _ _ _ _ ( ; ; ; i j . . . . k l m c c c c c c c c c c c c c c c c c c c c c c c c c c c c n o p . . ",
". . . . . q = = = 2 _ _ _ _ _ _ _ _ _ r ; ; ; s . . . . . . t u c c c c c c c c c c c c c c c c c c c c c c c c c c v w . . . . ",
". . . . . x = = 1 y _ _ _ _ _ _ _ _ _ 9 ; ; ; z . . . . . . . A B c c c c c c c c c c c c c c c c c c c c c c c c C D . . . . . ",
". . . . E * = = } _ _ _ _ _ _ _ _ _ _ F ; ; ; G . . . . . . . . H I J c c c c c c c c c c c c c c c c c c c c K L k . . . . . . ",
". . . . M = = = 8 _ _ _ _ _ _ _ _ _ _ N ; ; ; - . . . . . . . . . p O P c c c c c c c c c c c c c c c c c c Q R . . . . . . . . ",
". . . . S = = = T _ _ _ _ _ _ _ _ _ _ U V ; ; ; 7 . . . . . . . . . . W X c c c c c c c c c c c c c c c c Y Z . . . . . . . . . ",
". . . . ` = = = N _ _ _ _ _ _ _ _ _ _ _  .; ; ; ... . . . . . . . . . . +.@.c c c c c c c c c c c c c c #.$.. . . . . . . . . . ",
". . . %.[ = = = S _ _ _ _ _ _ _ _ _ _ _ { ; ; ; @ . . . . . . . . . . . . &.*.b c c c c c c c c c c K =.< . . . . . . . . . . . ",
". . . -.= = = ;._ _ _ _ _ _ _ _ _ _ _ _ 2 ; ; ; >.. . . . . . . . . . . . . p ,.'.c c c c c c c c ).!.~.. . . . . . . . . . . . ",
". . . {.= = = ]._ _ _ _ _ _ _ _ _ _ _ _ ^./.; ; (._.. . . . . . . . . . . . . . :.<.c c c c c c [.}.. . . . . . . . . . . . . . ",
". . . 2 = = = |._ _ _ _ _ _ _ _ _ _ _ _ _ : ; ; ; 1.. . . . . . . . . . . . . . . 2.3.c c c 4.5.6.. . . . . . . . . . . . . . . ",
". . ) 7.= = = ^._ _ _ _ _ _ _ _ _ _ _ _ _ 8.; ; ; ;.. . . . . . . . . . . . . . . . 9.0.a.K b.p . . . . . . . . . . . . . . . . ",
". . ^ = = = } S _ _ _ _ _ _ _ _ _ _ _ _ _ c.; ; ; : . . . . . . . . . . . . . . . . . ) d.e.. . . . . . . . . . . . . . . . . . ",
". . f.= = = 8 _ _ _ _ _ _ _ _ _ _ _ _ _ _ g.h.; ; i.j . . . . . . . . . . . . . . . . . . . . . . . . . . . . . . . . . . .     ",
". . _ = = = j._ _ _ _ _ _ _ _ _ _ _ _ _ _ _ k.; ; ; s . . . . . . . . . . . . . . . . . . . . . . . . . . . . . . . . . . .     ",
". . l.= = = N _ _ _ _ _ _ _ _ _ _ _ _ _ _ _ m.; ; ; ` . . . . . . . . . . . . . . . . . . . . . . . . . . . . . . . . . . .     ",
". n.} = = = o._ _ _ _ _ _ _ _ _ _ _ _ _ _ _ h ; ; ; p.. . . . . . . . . . . . . . . . . . . . . . . . . . . . . .               ",
". q.= = = x _ _ _ _ _ _ _ _ _ _ _ _ _ _ _ _ ! i ; ; - & . . . . . . . . . . . . . . . . . . . . . . . . . . . . .               ",
". r.= = = s._ _ _ _ _ _ _ _ _ _ _ _ _ _ _ _ _ t.; ; ; , . . . . . . . . . . . . . . . . . . . . . . . . . . . . .               ",
". z = = = u._ _ _ _ _ _ _ _ _ _ _ _ _ _ _ _ _ v.; ; ; w.. . . . . . . . . . . . . . . . . . . . . . . . . . . . .               ",
"p ].= = = | _ _ _ _ _ _ _ _ _ _ _ _ _ _ _ _ _ x.; ; ; 1 . . . . . . . . . . . . . . . . . . . . . . . . . .                     ",
"%.= = = ~ U _ _ _ _ _ _ _ _ _ _ _ _ _ _ _ _ _ q ; ; ; y.z.. . . . . . . . . . . . . . . . . . . . . . . . .                     ",
"s = = = + A._ _ _ _ _ _ _ _ _ _ _ _ _ _ _ _ _ ^.; ; ; ; 7 . . . . . . . . .                                                     ",
"B.= = = = C._ _ _ _ _ _ _ _ _ _ _ _ _ _ _ _ _  .; ; ; $ q.. . . . . . . . .                                                     ",
"p T = = = ~ ^._ _ _ _ _ _ _ _ _ _ _ _ _ _ _ ].; ; ; ; C.. . . . . . . . . .                                                     ",
". D.+ = = = ].A._ _ _ _ _ _ _ _ _ _ _ _ _ ..h.; ; ;  .) . . . . . . . . . .                                                     ",
". . g = = = = C._ _ _ _ _ _ _ _ _ _ _ _ A.E.; ; ; $ 7 . . . . . . . . . . .                                                     ",
". . k j.= = = ~ ^._ _ _ _ _ _ _ _ _ _ _ @ ; ; ; ; |.. . . . . . . . . . . .                                                     ",
". . . D.[ = = = F _ _ _ _ _ _ _ _ _ _ N (.; ; ; G . . . . . . . . . . . . .                                                     ",
". . . . g = = = = C._ _ _ _ _ _ _ _ S : ; ; ; /.& . . . . . . . . . . . . .                                                     ",
". . . . k c.= = = ~ | _ _ _ _ _ _ _ ~ ; ; ; ; S . . . . . . . . . . . . . .                                                     ",
". . . . . E ~ = = = l._ _ _ _ _ _ T i ; ; ; G ) . . . . . . . . . . . . . .                                                     ",
". . . . . . g = = = [ _ _ _ _ _ _ F.; ; ; i.G.. . . . . . . . . . . . . . .                                                     ",
". . . . . . ) @ = = { _ _ _ _ _ _ H.; ; ; f.. . . . . . . . . . . . . . . .                                                     ",
". . . . . . . } G G } s.8 8 8 8 8 # ; ; ; D . . . . . . . . . . . . . . . .                                                     ",
". . . . . . . $ ; ; ; ; ; ; ; ; ; ; ; ; ; D . . . . . . . . . . . . . . . .                                                     ",
". . . . . . . $ ; ; ; ; ; ; ; ; ; ; ; ; ; D . . . . . . . . . . . . . . . .                                                     ",
". . . . . . . $ ; ; ; ; ; ; ; ; ; ; ; ; ; D . . . . . . . . . . . . . . . .                                                     ",
". . . . . . . 2 z z z z z z z z z z z z z %.. . . . . . . . . . . . . . . .                                                     ",
". . . . . . . . . . . . . . . . . . . . . . . . . . . . . . . . . . . . . .                                                     ",
". . . . . . . . . . . . . . . . . . . . . . . . . . . . . . . . . . . . . .                                                     ",
". . . . . . . . . . . . . . . . . . . . . . . . . . . . . . . . . . . . . .                                                     ",
". . . . . . . . . . . . . . . . . . . . . . . . . . . . . . . . . . . . . .                                                     ",
". . . . . . . . . . . . . . . . . . . . . . . . . . . . . . . . . . . . . .                                                     ",
". . . . . . . . . . . . . . . . . . . . . . . . . . . . . . . . . . . . . .                                                     ",
". . . . . . . . . . . . . . . . . . . . . . . . . . . . . . . . . . . . . .                                                     ",
"                                                                                                                                ",
"                                                                                                                                ",
"                                                                                                                                ",
"                                                                                                                                "};
