/* XPM */
static char * menu_2_16_xpm[] = {
"16 16 10 1",
" 	c None",
".	c #000000",
"+	c #666666",
"@	c #7F7F7F",
"#	c #191919",
"$	c #999999",
"%	c #333333",
"&	c #CCCCCC",
"*	c #010101",
"=	c #030303",
" .......        ",
"..++@...........",
".#++$#..........",
".%++$%..+&&&&&+.",
".++++$#*.+&&&+..",
"#++++$%...+&+...",
"%++++$+....+*.. ",
"++++++$.......  ",
"++++++$.        ",
"++++++$=        ",
"%++++$%.        ",
".@+++$..        ",
".%$$$%..        ",
"........        ",
".......         ",
"                "};
